<?xml version="1.0" encoding="UTF-8"?>
<svg xmlns="http://www.w3.org/2000/svg" version="1.1" xmlns:xlink="http://www.w3.org/1999/xlink" viewBox="0 0 1080 1080">
  <!-- Generator: Adobe Illustrator 30.0.0, SVG Export Plug-In . SVG Version: 2.1.1 Build 123)  -->
  <defs>
    <style>
      .st0 {
        clip-path: url(#clippath-6);
      }

      .st1 {
        clip-path: url(#clippath-7);
      }

      .st2 {
        clip-path: url(#clippath-4);
      }

      .st3 {
        fill: #fff;
      }

      .st4, .st5, .st6, .st7, .st8 {
        stroke-miterlimit: 10;
      }

      .st4, .st6, .st7, .st8 {
        stroke: #002f65;
      }

      .st4, .st6, .st8, .st9 {
        fill: #29acad;
      }

      .st4, .st7 {
        stroke-width: 2px;
      }

      .st10, .st5, .st7 {
        fill: none;
      }

      .st5 {
        stroke: #bead86;
        stroke-width: 7.41px;
      }

      .st11 {
        clip-path: url(#clippath-1);
      }

      .st12 {
        clip-path: url(#clippath-5);
      }

      .st6 {
        font-family: Cricket, Cricket;
        font-size: 205.21px;
      }

      .st6, .st13 {
        display: none;
      }

      .st6, .st8 {
        stroke-width: 1.5px;
      }

      .st14 {
        clip-path: url(#clippath-3);
      }

      .st15 {
        fill: #bead86;
      }

      .st16 {
        fill: #002f65;
      }

      .st17 {
        clip-path: url(#clippath-2);
      }

      .st18 {
        clip-path: url(#clippath);
      }
    </style>
    <clipPath id="clippath">
      <rect class="st10" x="138.1" y="67.91" width="773.22" height="773.22"/>
    </clipPath>
    <clipPath id="clippath-1">
      <rect class="st10" x="138.1" y="67.91" width="773.22" height="773.22"/>
    </clipPath>
    <clipPath id="clippath-2">
      <rect class="st10" x="138.1" y="67.91" width="773.22" height="773.22"/>
    </clipPath>
    <clipPath id="clippath-3">
      <rect class="st10" x="138.1" y="67.91" width="773.22" height="773.22"/>
    </clipPath>
    <clipPath id="clippath-4">
      <rect class="st10" x="138.1" y="67.91" width="773.22" height="773.22"/>
    </clipPath>
    <clipPath id="clippath-5">
      <rect class="st10" x="138.1" y="67.91" width="773.22" height="773.22"/>
    </clipPath>
    <clipPath id="clippath-6">
      <rect class="st10" x="138.1" y="67.91" width="773.22" height="773.22"/>
    </clipPath>
    <clipPath id="clippath-7">
      <rect class="st10" x="138.1" y="67.91" width="773.22" height="773.22"/>
    </clipPath>
  </defs>
  <g id="Layer_2">
    <g class="st18">
      <g class="st11">
        <path class="st16" d="M212.06,470.26s-8.98-73.01,69.18-111.27c0,0-45.32-19-45.32-80.88,0,0,31.75,28.22,75.72,3.8,0,0,16.37-8.23,34.92-.18,0,0,12.85-92.09,110-129.55,97.16-37.45,183.46,0,183.46,0,0,0,128.64,43.97,110.19,194.86,0,0,61.88,14.84-9.05,140.4,0,0,24.24,66.22-2.9,115.8,0,0-4.34-13.75-14.47-28.59,0,0,32.39,108.38-181.47,195.5,0,0-59.71-44.24-83.59-79.52v24.06s-84.49-56.45-77.98-140.4c0,0-14.11,24.61-14.47,30.4,0,0-5.07-5.79-12.3-30.4,0,0-55,17.01-53.56-55.73,0,0-1.81-35.01,37.99-66.18l-2.89-4.39s-15.74,10.31-45.87,2.71-71.6,13.57-77.6,19.54"/>
        <path class="st5" d="M212.06,470.26s-8.98-73.01,69.18-111.27c0,0-45.32-19-45.32-80.88,0,0,31.75,28.22,75.72,3.8,0,0,16.37-8.23,34.92-.18,0,0,12.85-92.09,110-129.55,97.16-37.45,183.46,0,183.46,0,0,0,128.64,43.97,110.19,194.86,0,0,61.88,14.84-9.05,140.4,0,0,24.24,66.22-2.9,115.8,0,0-4.34-13.75-14.47-28.59,0,0,32.39,108.38-181.47,195.5,0,0-59.71-44.24-83.59-79.52v24.06s-84.49-56.45-77.98-140.4c0,0-14.11,24.61-14.47,30.4,0,0-5.07-5.79-12.3-30.4,0,0-55,17.01-53.56-55.73,0,0-1.81-35.01,37.99-66.18l-2.89-4.39s-15.74,10.31-45.87,2.71-71.6,13.57-77.6,19.54Z"/>
      </g>
      <g class="st17">
        <path class="st3" d="M473.66,500.66s86.3,22.25,166.09,0c0,0-1.63,19-33.38,24.15,0,0-56.99,11.13-100.69,0,0,0-27.41-3.8-32.02-24.15"/>
        <path class="st3" d="M497.54,547.61s56.72,40.17,118.33,0c0,0,1.36,32.02-48.85,35.82-50.21,3.8-62.96-20.08-62.96-20.08,0,0-6.24-7.87-6.51-15.74"/>
        <path class="st3" d="M367.27,473.25l1.63-16.28s-18.94-3.19-39.03,24.24c-5.91,8.06-10.2,17.21-12.64,26.91-4.9,19.5-7.8,55,28.05,52.52,0,0-36.11-4.22-18.27-49.67,0,0-5.97,39.8,24.97,32.39,0,0-20.45-1.45-15.56-30.94,4.89-29.49,30.85-39.17,30.85-39.17"/>
      </g>
      <g class="st14">
        <path class="st15" d="M353.43,526.71s4.34-24.97,8.68-34.2c0,0-21.44,14.38-8.68,34.2"/>
      </g>
      <g class="st2">
        <path class="st9" d="M327.65,427.11s-2.44-2.44-5.16-17.37c0,0-17.91,2.98-32.57-2.44l30.12-15.2s.27-19.54,2.44-27.41c0,0-66.76,20.63-82.78,68.12,0,0,33.11-11.4,54.28-3.26,0,0,15.2,6.78,33.65-2.44"/>
        <path class="st9" d="M325.75,349.22s8.14-9.77,14.93-11.13l-29.31-14.38s18.46-7.33,34.74,1.9v-20.63s-9.5-11.67-29.85-1.36c-20.35,10.31-36.37,9.5-50.48,8.68,0,0,6.78,31.21,59.98,36.91"/>
        <path class="st9" d="M371.07,281.92s11.67-86.12,116.7-116.7c0,0,77.62-21.17,150.62,10.59,0,0,74.09,29.31,87.39,109.37,0,0-16.55-29.85-65.13-42.07,0,0,50.21,32.57,68.12,81.15,0,0-46.14-40.17-164.19-42.34,0,0-90.37-2.71-157.14,36.1,0,0,13.84-26.05,95.8-58.89,0,0-83.32,8.14-132.17,68.12,0,0-10.86-32.57,64.59-90.1,0,0-47.76,12.76-64.59,44.78"/>
      </g>
      <g class="st12">
        <path class="st15" d="M376.41,400.79s.36-18.64,2.17-24.61c0,0-15.74-29.85-34.2-11.49-18.46,18.36,2.53,75.72,9.95,80.24,0,0,6.33-3.8,16.19-2.89,0,0,2.26-25.96-8.23-40.21,0,0-7.24,11.99-2.17,32.07,0,0-11.13-20.69-9.52-44.51.08-1.23.31-2.46.69-3.64,1.78-5.55,8.16-17.55,25.12,15.04"/>
        <path class="st15" d="M409.52,505.73s.36-27.86,13.93-50.84l-18.09-17.73s-8.68-10.31-9.95-16.1-1.45-10.13,0-25.69l6.51-52.11s24.43-27.68,74.54-33.29c0,0,25.51,24.97,88.66,53.56,0,0,9.23,18.82,7.42,43.24,0,0,3.44-11.04,10.13-17.55,0,0,4.16-4.34,9.59,2.35,5.43,6.7,27.14,29.31,67.13,34.02,0,0,28.22-13.93,51.02-40.53,0,0,1.27,22.07-2.72,30.76-3.98,8.68-5.43,16.55-23.88,36.59,0,0,10.31,14.07,8.68,48.27,0,0-26.69-40.89-58.53-59.53l-19.65-11.67c-.53-.32-1.07-.64-1.58-.99-3.27-2.21-21.41-13.36-36.57,0,0,0,9.95-4.7,20.44,2.98,5.54,4.06,7.07,9.07,7.28,12.9.24,4.41-2.01,8.64-5.93,10.67-2.34,1.21-5.66,2.3-10.31,2.76,0,0,5.7-8.14.27-11.22,0,0-2.44-2.63-11.13,5.83-8.68,8.46-19.27,9.28-19.27,9.28,0,0-7.87.45-15.65-2.81,0,0-9.59-4.7-15.83-12.03,0,0-3.08-3.17-6.33-.45-3.26,2.72,1.36,10.68,1.36,10.68,0,0-21.98.09-16.74-18.09,0,0,2.8-13.75,21.08-13.03,0,0-11.94-9.68-28.95.81-17.01,10.49-26.87,20.08-26.87,20.08,0,0-34.65,30.71-60.07,58.89"/>
        <path class="st15" d="M573.62,347.41s-57.54-23.16-76.35-41.61c0,0,48.49-15.56,134.61,0,0,0,56.61,7.73,78.71,30.53v17.1l-25.11-21.57s-12.35-13.03-29.58-8.28l-59.03,24.16s-11.94,4.34-19-2.58l-5.83-5.43,1.58,7.69Z"/>
        <path class="st15" d="M728.23,398.89s1.9-28.09,16.01-34.74c14.11-6.65,15.61,29.45,15.61,29.45,0,0,2.85,30.17-23.75,67.44,0,0-9.23-38.36,3.98-57.9,0,0,6.15,8.87,1.63,31.48,0,0,8.56-12.28,8.14-41.61,0,0,.18-16.1-10.49-11.22,0,0-6.88,5.07-11.13,17.1"/>
        <path class="st15" d="M555.89,482.75s9.59,9.23,42.88,12.12c0,0-45.95,6.15-88.11,0,0,0,36.73-2.53,45.23-12.12"/>
        <path class="st15" d="M446.61,524.9l11.94-12.12,13.03,31.48s13.21,33.11,32.21,43.6c0,0,40.17,27.32,94.99,6.69,0,0,30.58-7.42,46.14-55.18l11.4-33.65s9.77,10.13,12.67,14.65c0,0-2.17,44.33-13.75,73.1-11.58,28.77-38.54,42.16-47.77,44.15,0,0,25.74-22.94,28.95-53.78,0,0-18.45,36.05-78.61,36.23-60.16.18-78.25-34.92-78.25-34.92,0,0,5.79,29.85,29.13,52.47,0,0-40.89-10.68-54.28-58.8,0,0-5.43-13.75-7.78-53.92"/>
      </g>
      <g class="st0">
        <path class="st16" d="M441,394.27s30.4,12.85,66.94-12.48l-10.68-5.83s-8.14,9.5-21.3,9.23c-13.16-.27-26.6-7.33-26.6-7.33l-23.07.27s12.52-17.78,47.92-16.15c0,0-3.28-2.44-16.71-8.55-13.44-6.11-30.53,1.76-30.53,1.76l-14.66,6.38s1.9-14.79,25.65-33.38c0,0,10.45-8.68,20.76-5.29,10.31,3.39,51.57,25.78,60.66,34.47,0,0,2.31,2.31,6.92.68l12.08-4.07s-4.07,1.52-5.84,5.85c-1.76,4.33-4.75,11.93-4.75,11.93,0,0-5.16,13.98-18.73,10.99,0,0-8.01,21.03-26.73,23.88-18.73,2.85-26.05-1.22-26.05-1.22,0,0-9.81-3.26-15.29-11.13"/>
      </g>
      <g class="st1">
        <path class="st3" d="M446.25,376.5s-1.09,10.99,20.22,10.45c21.3-.54,31.53-4.48,35.73-8.96l-7.87-4.89s-19.13,22.98-31.8,0c0,0-13.93,2.08-16.28,3.39"/>
      </g>
    </g>
  </g>
  <g id="Layer_1">
    <path class="st4" d="M925.84,864.22h43.71l27.07,14.33-22.93-61.78h-72.93l-34.71,30.57v21.34l-19.11-51.91h-231.21l-20.38,54.95-9.87-36.16,17.52-18.79h-120.06l17.83,18.47-31.85,116.56-4.78,5.73-4.78-6.05-16.24-40.45,19.67-17.52v-45.54l-34.63-31.21h-205.09l23.57,19.74v11.46l-34.71-31.21H83.38l23.14,19.74v46.18l-21.36,12.89,21.36,12.91v44.59l-20.72,22.11h103.82l-23.89-22.43v-26.11h43.95l36.94-32.8v58.92l-21.34,22.43h177.39l-21.34-22.75v-25.8h6.37l18.47,48.54h124.52l-5.1-19.56,3.34-12.1h28.18l4.14,11.78-5.41,19.88h293.95l14.01-37.72,14.33,37.72h76.43l34.08-31.35v-46.5l-24.52-22.29-38.3-10.83ZM186.6,871.54l-8.76,7.33h-12.1v-14.81h12.74l8.12,5.89v1.59ZM322.9,952.75l-7.32,7.8h-1.43l-7.64-7.64v-116.4l7.48-6.37h1.43l7.48,6.37v116.24ZM402.63,871.79l-8.76,7.33h-12.1v-14.81h12.74l8.12,5.89v1.59ZM537.87,897.98l5.25-17.36,5.25,17.36h-10.51ZM801.4,863.9h27.07l-9.55,6.53h-17.52v-6.53ZM642.48,951.64l-14.33,12.9-10.67-12.42-20.54-74.68,28.18-15.13h17.36v89.33ZM742.96,952.43l-18.95,18.79-21.97-19.74v-89.17h17.36l23.57,13.06v77.07ZM742.96,853.87l-9.39-25.48,9.39,8.6v16.88ZM801.4,925.05v-7.32h16.88l12.42,7.32h-29.3ZM928.63,926.8h-47.61l-18.95-10.35-18.31,8.6h-7.64v-61.15h6.85l22.93,12.1v11.31l25.16,22.29,37.58,7.48v9.71Z"/>
    <polygon class="st7" points="865.89 887.31 865.89 876 842.96 863.9 836.11 863.9 836.11 925.05 843.76 925.05 862.07 916.45 881.02 926.8 928.63 926.8 928.63 917.08 891.05 909.6 865.89 887.31"/>
    <polygon class="st7" points="828.47 863.9 801.4 863.9 801.4 870.43 818.92 870.43 828.47 863.9"/>
    <polygon class="st7" points="801.4 917.72 801.4 925.05 830.7 925.05 818.28 917.72 801.4 917.72"/>
    <polygon class="st7" points="742.96 853.87 742.96 836.99 733.57 828.39 742.96 853.87"/>
    <polygon class="st7" points="702.04 862.31 702.04 951.48 724.01 971.22 742.96 952.43 742.96 875.37 719.39 862.31 702.04 862.31"/>
    <polygon class="st7" points="596.94 877.44 617.48 952.12 628.15 964.54 642.48 951.64 642.48 862.31 625.13 862.31 596.94 877.44"/>
    <polygon class="st7" points="537.87 897.98 548.38 897.98 543.12 880.62 537.87 897.98"/>
    <polygon class="st7" points="381.77 864.31 381.77 879.12 393.87 879.12 402.63 871.79 402.63 870.2 394.51 864.31 381.77 864.31"/>
    <polygon class="st7" points="165.74 864.06 165.74 878.87 177.84 878.87 186.6 871.54 186.6 869.95 178.47 864.06 165.74 864.06"/>
    <polygon class="st7" points="313.98 830.14 306.5 836.51 306.5 952.91 314.14 960.56 315.58 960.56 322.9 952.75 322.9 836.51 315.42 830.14 313.98 830.14"/>
    <path class="st16" d="M208.88,824.13h-105.57l10.91,9.2v122.77l-10.91,10.78h67.04l-12.27-11.1v-34.78l2.31-2.04h46.18l32.32-28.55v-39.76l-30.01-26.51ZM193.88,875.03l-13.85,11.3h-21.93v-29.57h21.93l13.85,9.85v8.42Z"/>
    <polyline class="st16" points="98.82 895.5 114.22 904.82 114.22 886.33"/>
    <polygon class="st16" points="298.45 833.29 309.6 824.13 243.44 824.13 254.12 833.41 254.12 955.58 243.44 966.88 309.6 966.88 298.45 955.58 298.45 833.29"/>
    <path class="st16" d="M452.84,955.29l-18.55-46.19,20.78-18.77-.49-40.04-29.65-26.16h-105.54l11.65,9.84v121.5l-11.65,11.42h65.6l-10.72-10.94v-36.62l18.92-.02,17.4,47.58h52.18l-9.95-11.59ZM410.11,875.68l-14.12,10.67-21.7.09v-29.46h22.42l13.4,9.38v9.32Z"/>
    <path class="st16" d="M576.88,833.29l9.08-9.16h-85.51l8.12,8.68-32.96,123.01-9.91,11.06h55.22l-3.43-10.26,5.33-20.33h40.29l5.49,20.12-3.19,10.46h55.9l-10.51-10.86-33.92-122.73ZM528.95,905.7l14.1-53.02,14.09,53.02h-28.18Z"/>
    <polygon class="st16" points="620.71 824.13 605.22 865.37 623.34 854.9 649.45 855.14 649.45 955.34 635.99 966.88 707.77 966.88 694.43 955.22 694.43 855.14 721.26 855.02 738.66 865.37 723.17 824.13 620.71 824.13"/>
    <polygon class="st16" points="794.11 932.61 794.13 929.54 794.13 910.09 820.87 910.44 828.6 915.45 828.6 872.46 820.51 877.83 794.11 877.71 794.13 873.25 794.13 856.97 845.03 856.88 855.72 863.02 841.24 824.13 739.42 824.13 750.46 833.77 750.46 955.58 739.42 967.4 844.69 967.4 860.32 925.44 845.35 932.61 794.11 932.61"/>
    <polygon class="st16" points="919.52 870.01 919.52 865.93 919.87 856.7 929.82 856.76 972.18 856.76 983.17 862.91 968.48 824.13 903.51 824.13 873.78 850.64 873.78 884.29 894.36 902.64 935.54 910.79 935.54 934.92 880.1 934.92 868.52 928.35 882.61 966.88 951.55 966.88 981.28 940.37 981.28 900.6 959.55 881.23 919.52 870.01"/>
    <g class="st13">
      <path class="st8" d="M390.37,801.89c-12.06,0-15.95-7.23-15.95-16.88,0-6.86,1.85-14.65,4.27-22.26,3.52-11.13,8.35-21.71,10.57-27.09-4.82.93-11.87,1.85-16.32,2.23-.74,2.23-11.69,26.16-13.54,29.68-.37.74-.93.93-1.67.93-2.6,0-6.68-3.15-6.68-4.64v-.37c3.52-7.42,10.94-24.86,11.69-26.53-4.27-.93-8.53-4.27-8.53-11.13,0-4.64,3.52-10.39,9.46-12.43,1.67,2.78,5.57,5.01,11.5,5.01,11.32,0,24.12-2.04,25.04-2.04,10.76,0,12.43,12.06,12.43,14.84,0,2.04-12.24,33.39-12.24,42.48,0,1.48.93,2.6,1.85,2.6,6.12,0,16.88-21.15,20.41-27.83,1.3,0,5.01,4.27,5.01,9.27,0,1.11-.19,2.23-.56,3.34-2.97,8.16-17.62,40.81-36.73,40.81Z"/>
      <path class="st8" d="M443.99,691.89c3.15-4.82,8.35-6.86,13.17-6.86s9.09,2.04,10.57,5.57c-6.86,9.65-28.94,63.07-28.94,79.77,0,3.34.74,5.19,2.6,5.19,5.94,0,15.21-14.28,20.22-25.41,0-.19.19-.19.19-.19.74,0,4.08,5.01,4.08,10.76,0,2.04-.37,4.08-1.48,6.12-7.42,15.4-21.33,35.25-33.02,35.25s-16.51-8.35-16.51-19.29c0-21.15,23.19-81.81,29.13-90.9Z"/>
      <path class="st8" d="M547.5,761.64c-6.49,15.4-20.96,40.26-37.66,40.26-10.57,0-13.73-9.28-13.73-18.37,0-1.11.19-2.04.19-3.15-5.38,10.39-13.36,21.52-22.63,21.52-13.73,0-19.29-10.76-19.29-24.49,0-24.67,17.62-58.99,37.47-58.99h.37c10.76,0,15.77,6.49,18.74,11.87,0,0,1.86-6.12,3.9-7.42,1.85-1.11,4.08-1.67,6.49-1.67,6.12,0,12.8,3.15,13.54,5.75-1.67,2.97-7.79,17.62-11.69,30.24-1.86,5.75-2.97,11.13-2.97,14.84,0,3.15.74,5.01,2.23,5.01,7.05,0,16.51-20.96,20.78-28.57,1.86.74,5.01,5.19,5.01,9.09,0,1.3-.19,2.78-.74,4.08ZM500.57,734c-8.9,0-21.7,26.16-21.7,38.22,0,3.34,1.11,5.75,3.71,5.75,5.75,0,11.87-8.16,15.95-15.95,4.27-8.35,8.35-19.85,9.09-22.63-1.11-2.23-3.15-5.38-7.05-5.38Z"/>
      <path class="st8" d="M574.22,785.2c0-17.44,14.65-41.55,14.65-49.53,0-1.86-.74-2.78-2.23-2.78-6.31,0-21.52,26.16-29.12,48.42-1.11,3.52-4.08,15.96-4.64,18.55-2.41,1.67-6.68,2.04-7.98,2.04-6.12,0-12.61-4.08-12.61-14.47v-.93c.37-6.86,8.53-34.69,18.55-60.29,2.6-6.68,8.72-8.91,13.91-8.91s9.46,2.04,10.02,3.9c-3.34,7.23-5.94,12.43-8.53,19.66v.19c3.52-5.01,14.84-22.26,29.87-22.26,9.09,0,16.14,4.45,16.14,15.21v.93c-.56,10.02-11.69,33.39-11.69,40.07,0,1.11.37,1.86,1.3,1.86,6.86,0,17.62-20.78,21.15-28.57.93,0,5.01,3.52,5.01,9.09,0,1.86-.56,3.71-1.48,5.94-6.12,12.99-18.18,38.77-36.92,38.77-11.69,0-15.4-9.09-15.4-16.88Z"/>
      <path class="st8" d="M708.9,757.74c0,.93-.19,1.86-.56,2.78-3.34,9.28-18.92,41.55-38.21,41.55-9.28,0-13.36-8.72-13.36-17.81-5.38,8.35-13.36,17.81-22.26,17.81-13.91,0-19.48-11.13-19.48-25.04,0-24.67,17.07-58.44,36.92-58.44,10.57,0,14.66,5.2,18.74,11.69,2.04-5.94,11.69-32.65,16.33-39.14,3.15-4.45,8.16-6.49,12.8-6.49s9.09,2.04,10.57,5.57c-11.13,15.58-30.05,64.37-30.05,81.07,0,2.97.74,5.01,2.04,5.57.37.19.74.19,1.11.19,6.49,0,16.7-20.41,20.22-28.38,0-.19.19-.19.37-.19.93,0,4.82,5.01,4.82,9.27ZM660.11,734.18c-8.35,0-20.78,25.97-20.78,37.84,0,3.71,1.11,5.94,3.71,5.94,5.56,0,11.5-8.16,15.58-15.95,4.08-8.35,7.98-19.85,8.72-22.45-1.11-2.41-3.15-5.38-7.23-5.38Z"/>
      <path class="st8" d="M777.91,749.21c.74,0,3.52,3.52,3.52,8.35,0,1.49-.19,2.97-.93,4.64-3.34,8.35-16.88,23.38-30.05,25.04-7.42,9.65-15.95,15.96-26.9,15.96-21.7,0-27.83-14.28-27.83-30.98,0-24.49,17.99-54.36,40.63-54.36,16.7,0,28.01,10.94,28.01,28.2,0,10.02-1.67,17.62-5.01,25.78,8.16-4.27,15.21-15.21,18.36-22.63h.19ZM720.59,768.13c0,7.05,2.78,12.43,9.83,12.43,1.86,0,3.52-.37,5.01-1.11-.37-1.49-.56-2.97-.56-4.64,0-2.6.56-5.2,1.67-7.61,2.23-4.45,7.05-6.49,10.95-6.49h.56c1.11-4.27,1.86-8.53,1.86-12.62,0-7.98-2.6-14.28-8.35-14.28-10.39,0-20.96,20.41-20.96,34.32Z"/>
    </g>
    <text class="st6" transform="translate(219.84 801.89)"><tspan x="0" y="0">O</tspan></text>
    <g>
      <path class="st4" d="M373.17,705.37c0,47.61-30.99,115.74-81.88,115.74-36.94,0-54.79-25.65-54.79-58.28,0-23.19,8.21-49.66,22.37-71.21,5.34-8.21,13.34-12.52,20.93-14.36,8.21-14.16,21.55-24.83,39.19-24.83,34.27,0,54.17,22.16,54.17,52.94ZM343,699.41c0-18.06-5.13-31.19-17.65-31.19-18.67,0-33.04,31.4-33.04,49.25,0,7.18,2.26,12.11,7.39,12.11,6.57,0,17.03-11.49,19.49-15.39.2.41.41,1.03.41,1.85,0,6.57-9.03,26.27-26.88,26.27-8.82,0-14.98-4.72-18.47-11.9-4.93,14.16-7.59,25.65-7.59,40.43,0,15.8,5.54,26.88,18.26,26.88,32.63,0,58.07-54.38,58.07-98.29Z"/>
      <path class="st4" d="M410.93,808.58c-13.34,0-17.65-8-17.65-18.67,0-7.59,2.05-16.21,4.72-24.62,3.9-12.31,9.23-24.01,11.7-29.96-5.34,1.03-13.13,2.05-18.06,2.46-.82,2.46-12.93,28.93-14.98,32.83-.41.82-1.03,1.03-1.85,1.03-2.87,0-7.39-3.49-7.39-5.13v-.41c3.9-8.21,12.11-27.5,12.93-29.34-4.72-1.03-9.44-4.72-9.44-12.31,0-5.13,3.9-11.49,10.47-13.75,1.85,3.08,6.16,5.54,12.72,5.54,12.52,0,26.68-2.26,27.7-2.26,11.9,0,13.75,13.34,13.75,16.42,0,2.26-13.54,36.94-13.54,46.99,0,1.64,1.03,2.87,2.05,2.87,6.77,0,18.67-23.39,22.57-30.78,1.44,0,5.54,4.72,5.54,10.26,0,1.23-.2,2.46-.62,3.69-3.28,9.03-19.49,45.14-40.63,45.14Z"/>
      <path class="st4" d="M470.23,686.9c3.49-5.34,9.23-7.59,14.57-7.59s10.06,2.26,11.7,6.16c-7.59,10.67-32.01,69.77-32.01,88.24,0,3.69.82,5.75,2.87,5.75,6.57,0,16.83-15.8,22.37-28.11,0-.21.2-.21.2-.21.82,0,4.51,5.54,4.51,11.9,0,2.26-.41,4.51-1.64,6.77-8.21,17.03-23.6,38.99-36.53,38.99s-18.26-9.23-18.26-21.34c0-23.39,25.65-90.5,32.22-100.55Z"/>
      <path class="st4" d="M584.74,764.05c-7.18,17.03-23.19,44.53-41.66,44.53-11.7,0-15.19-10.26-15.19-20.31,0-1.23.21-2.26.21-3.49-5.95,11.49-14.77,23.8-25.03,23.8-15.19,0-21.34-11.9-21.34-27.09,0-27.29,19.49-65.26,41.45-65.26h.41c11.9,0,17.44,7.18,20.73,13.13,0,0,2.05-6.77,4.31-8.21,2.05-1.23,4.51-1.85,7.18-1.85,6.77,0,14.16,3.49,14.98,6.36-1.85,3.28-8.62,19.49-12.93,33.45-2.05,6.36-3.28,12.31-3.28,16.42,0,3.49.82,5.54,2.46,5.54,7.8,0,18.26-23.19,22.98-31.6,2.05.82,5.54,5.75,5.54,10.05,0,1.44-.2,3.08-.82,4.51ZM532.82,733.48c-9.85,0-24.01,28.93-24.01,42.27,0,3.69,1.23,6.36,4.1,6.36,6.36,0,13.13-9.03,17.65-17.65,4.72-9.23,9.23-21.96,10.05-25.04-1.23-2.46-3.49-5.95-7.8-5.95Z"/>
      <path class="st4" d="M614.28,790.12c0-19.29,16.21-45.97,16.21-54.79,0-2.05-.82-3.08-2.46-3.08-6.98,0-23.8,28.93-32.22,53.56-1.23,3.9-4.51,17.65-5.13,20.52-2.67,1.85-7.39,2.26-8.82,2.26-6.77,0-13.95-4.51-13.95-16.01v-1.03c.41-7.59,9.44-38.37,20.52-66.69,2.87-7.39,9.65-9.85,15.39-9.85s10.47,2.26,11.08,4.31c-3.69,8-6.57,13.75-9.44,21.75v.21c3.9-5.54,16.42-24.62,33.04-24.62,10.05,0,17.85,4.93,17.85,16.83v1.03c-.62,11.08-12.93,36.94-12.93,44.32,0,1.23.41,2.05,1.44,2.05,7.59,0,19.49-22.98,23.39-31.6,1.03,0,5.54,3.9,5.54,10.05,0,2.05-.62,4.1-1.64,6.57-6.77,14.36-20.11,42.89-40.84,42.89-12.93,0-17.03-10.05-17.03-18.67Z"/>
      <path class="st4" d="M763.26,759.74c0,1.03-.21,2.05-.62,3.08-3.69,10.26-20.93,45.97-42.27,45.97-10.26,0-14.77-9.64-14.77-19.7-5.95,9.23-14.77,19.7-24.62,19.7-15.39,0-21.55-12.31-21.55-27.7,0-27.29,18.88-64.64,40.84-64.64,11.7,0,16.21,5.75,20.73,12.93,2.26-6.57,12.93-36.12,18.06-43.3,3.49-4.92,9.03-7.18,14.16-7.18s10.05,2.26,11.7,6.16c-12.31,17.24-33.24,71.21-33.24,89.67,0,3.28.82,5.54,2.26,6.16.41.21.82.21,1.23.21,7.18,0,18.47-22.57,22.37-31.4,0-.21.2-.21.41-.21,1.03,0,5.34,5.54,5.34,10.26ZM709.29,733.68c-9.23,0-22.98,28.73-22.98,41.86,0,4.1,1.23,6.57,4.1,6.57,6.16,0,12.72-9.03,17.24-17.65,4.51-9.23,8.82-21.96,9.65-24.83-1.23-2.67-3.49-5.95-8-5.95Z"/>
      <path class="st4" d="M839.6,750.31c.82,0,3.9,3.9,3.9,9.23,0,1.64-.21,3.28-1.03,5.13-3.69,9.23-18.67,25.86-33.24,27.7-8.21,10.67-17.65,17.65-29.75,17.65-24.01,0-30.78-15.8-30.78-34.27,0-27.09,19.9-60.13,44.94-60.13,18.47,0,30.99,12.11,30.99,31.19,0,11.08-1.85,19.49-5.54,28.52,9.03-4.72,16.83-16.83,20.32-25.03h.21ZM776.19,771.24c0,7.8,3.08,13.75,10.88,13.75,2.05,0,3.9-.41,5.54-1.23-.41-1.64-.62-3.28-.62-5.13,0-2.87.62-5.75,1.85-8.41,2.46-4.92,7.8-7.18,12.11-7.18h.62c1.23-4.72,2.05-9.44,2.05-13.95,0-8.82-2.87-15.8-9.23-15.8-11.49,0-23.19,22.57-23.19,37.96Z"/>
    </g>
  </g>
</svg>