<?xml version="1.0" encoding="utf-8"?>
<svg xmlns="http://www.w3.org/2000/svg" id="Layer_1" style="enable-background:new 0 0 861.5 173.7;" version="1.1" viewBox="0 0 861.5 173.7" x="0px" y="0px">
<style type="text/css">
	.st0{fill:#174725;}
	.st1{fill:#9E1E22;}
	.st2{fill:#184722;}
</style>
<path class="st0" d="M191.5,102.5c0.1,0.6-0.3,0.5-0.5,0.6c-1.8,0.6-3.7,0.7-5.5,1c-3,0.5-6,1-8.9,1.8c-0.9,0.2-1.3-0.6-1.7-1.1&#xA;	c-1-1.4-2-2.8-2.9-4.2c-2.6-3.8-5.4-7.5-8-11.4c-1.1-1.7-2.4-1.9-4-1.6c-5.6,1.1-11.3,2.2-16.9,3.3c-5.6,1.1-11.2,2.3-16.8,3.4&#xA;	c-2.6,0.5-3.2,0.8-3.5,3.4c-0.4,3-1.3,5.8-1.9,8.6c-0.7,3.3-1.3,6.7-2.3,9.9c-0.2,0.8-0.6,1.2-1.4,1.3c-4.1,0.7-8.2,1.8-12.3,2.7&#xA;	c-0.7,0.1-1.5,0.9-1.9,0.4c-0.3-0.5-0.1-1.5,0.1-2.2c1.2-5.4,2.5-10.8,3.7-16.2c4.8-22,10.1-43.8,15.6-65.6c0.3-1.2,0.8-2.4,0.8-3.6&#xA;	c0-1.2,1.3-1.3,2-1.4c4.2-0.6,8.4-1.5,12.6-2.5c1.1-0.3,1.8,0.3,2.4,1.1c3.7,5.1,7.4,10.2,11.1,15.2c9.7,13.1,19.1,26.4,28.4,39.8&#xA;	c1.2,1.7,2.5,3.3,3.6,5c2.4,3.7,5,7.2,7.3,11C190.9,101.6,191.2,102.1,191.5,102.5z M152.8,73.8c-0.1-0.2-0.3-0.4-0.4-0.6&#xA;	c-1.4-2-2.8-4-4.2-5.9c-4-5.6-8.1-11.1-12.4-16.5c-0.3-0.3-0.5-0.8-1-0.7c-0.4,0.1-0.4,0.5-0.5,0.8c-1.4,5.4-2.7,10.8-4.2,16.2&#xA;	c-1,3.7-1.6,7.5-2.9,11.2c-0.2,0.7-0.2,1.2,1,1c4.2-0.9,8.4-1.6,12.7-2.5c3.6-0.7,7.2-1.4,10.8-2.2&#xA;	C152.2,74.5,152.8,74.6,152.8,73.8z"/>
<path class="st1" d="M236.1,136.2c5,0,10.1,0,15.1,0c0.9,0,1.2,0.2,1.2,1.1c-0.1,2.2,0,4.3,0,6.5c0,0.9-0.3,1.3-1.4,1.3&#xA;	c-2.8-0.1-5.6,0-8.3-0.1c-1.2,0-1.6,0.3-1.5,1.5c0,8.1,0,16.1,0,24.2c0,0.6,0,1.2-0.1,1.8c-0.1,0.5-0.3,0.8-1,0.8&#xA;	c-2.6-0.1-5.3-0.1-8-0.1c-0.9,0-1.2-0.2-1.2-1.2c0-8.4,0-16.9,0-25.3c0-1.6-0.1-1.7-1.7-1.7c-2.8,0-5.7,0-8.5,0&#xA;	c-1,0-1.1-0.3-1.1-1.2c0.1-2.2,0.1-4.5,0-6.8c0-0.9,0.3-1,1-1C225.9,136.2,231,136.2,236.1,136.2z"/>
<path class="st1" d="M583.1,154.8c0-5.9,0-11.9,0-17.8c0-0.5,0.1-0.6,0.6-0.6c2.9,0.1,5.8-0.3,8.7-0.1c0.7,0.1,0.8,0.3,0.9,0.9&#xA;	c0.4,8.3,0.1,16.6,0.2,24.9c0,2.2,0,2.2,2.1,2.3c4.7,0,9.4,0,14.1,0c2,0,1.8,0.4,1.8,1.8c0,2,0,4,0,6c0,0.9-0.2,1.3-1.2,1.3&#xA;	c-8.7,0-17.3,0-26,0c-0.9,0-1.2-0.2-1.2-1.2C583.1,166.5,583.1,160.6,583.1,154.8C583.1,154.8,583.1,154.8,583.1,154.8z"/>
<path class="st1" d="M201.1,154.6c0-5.8,0-11.7,0-17.5c0-0.6,0-0.9,0.8-0.9c2.9,0,5.8,0,8.7,0c1.1,0,0.9,0.7,0.9,1.3&#xA;	c0,9.3,0,18.5,0,27.8c0,2.5,0.1,4.9-0.2,7.4c-0.1,0.7-0.3,0.7-0.9,0.7c-2.7,0-5.3,0-8,0c-1,0-1.4-0.2-1.4-1.3&#xA;	C201.1,166.2,201,160.4,201.1,154.6C201,154.6,201.1,154.6,201.1,154.6z"/>
<path class="st2" d="M555,44.3c1,0.9,2,1.8,2.9,2.7c3.5,3.7,5.5,8.1,5.9,13.2c0.5,6-1,11.5-4.7,16.3c-4.1,5.2-9.7,8-16.1,9.2&#xA;	c-5.1,1-10.1,0.5-15.2,0.2c-6.9-0.4-13.7-0.8-20.6-1.2c-6.8-0.4-13.6-0.8-20.3-1c-0.8,0-1.1-0.3-1-1.1c0.7-9.6,0.7-19.1,1.1-28.7&#xA;	c0.3-5.7,0.4-11.4,0.6-17.1c0.3-8.5,0.7-17.1,1-25.6c0.1-2.6,0.2-5.2,0.2-7.9c0-0.8,0.3-1.1,1.1-1c7.7,0.7,15.5,0.7,23.2,1.2&#xA;	c8.8,0.5,17.6,0.9,26.4,1.6c6.6,0.5,12.6,2.7,17.4,7.6c5.9,5.9,7,13,5.2,20.8c-0.8,3.2-2.2,6.1-4.3,8.6&#xA;	C557,42.9,556.1,43.6,555,44.3z M533.3,71.9c2.2,0,4.5,0.2,6.7,0c2.5-0.3,4.8-1,6.7-2.9c4.1-4,4.1-13.2-3.3-15.6&#xA;	c-2.4-0.8-4.7-1.3-7.2-1.5c-4.3-0.3-8.6-0.6-12.8-0.8c-6.7-0.4-13.5-0.8-20.2-1.2c-1.1-0.1-1.2,0.4-1.3,1.3c-0.1,3-0.4,6-0.5,9&#xA;	c-0.2,2.9-0.3,5.7-0.4,8.6c0,0.5-0.2,1.3,0.7,1.3c2.7,0,5.2,0.7,7.9,0.7C517.5,70.7,525.4,71.6,533.3,71.9z M536.3,37.7&#xA;	c1.1,0.1,2.2,0.1,3.2-0.1c3.7-0.6,6.5-2.6,7.9-6.2c0.7-1.8,0.5-3.7,0.3-5.5c-0.3-2.6-1.8-4.4-4.1-5.5c-2.7-1.3-5.5-1.5-8.4-1.7&#xA;	c-10-0.5-20-1.1-30-1.6c-1.8-0.1-1.8-0.1-1.9,1.8c-0.2,5.3-0.4,10.6-0.7,16c0,0.9,0.5,0.8,1.1,0.8C514.5,36.4,525.4,37.1,536.3,37.7&#xA;	z"/>
<path class="st2" d="M631.4,98.9c-5.5-0.2-10.9-1.1-16.4-1.8c-5.2-0.6-10.4-1.2-15.6-1.8c-6.5-0.7-13-1.6-19.5-2.1&#xA;	c-1-0.1-1.2-0.4-1.1-1.4c0.3-5.3,0.8-10.6,1.5-15.9c0.6-4.5,0.5-9,1.4-13.5c0.1-0.8,0.1-1.6,0.2-2.4c0.3-4.6,1.4-9,1.7-13.6&#xA;	c0.2-3,0.3-6,0.7-8.9c1-7.5,1.6-15,2.2-22.5c0.1-0.7,0.8-1.4,0.3-2.3c-0.2-0.3,0.5-0.4,0.9-0.4c1.5-0.1,3.1,0.1,4.6,0.3&#xA;	c10.8,1.2,21.6,2.3,32.4,3.6c4.9,0.6,9.9,1.1,14.8,2.1c5.8,1.2,10.8,3.9,14.7,8.5c5.3,6.2,5.9,13.2,3.7,20.8&#xA;	c-1.2,4.2-3.7,7.5-7.1,10.2c-0.4,0.3-0.5,0.5-0.1,0.8c0.8,0.9,1.5,1.8,2.2,2.7c4.2,4.9,5.5,10.6,4.7,16.9&#xA;	c-1.3,10.6-8.8,18.1-19.8,20C635.6,98.7,633.5,98.9,631.4,98.9z M631.7,84.9c0.8,0,1.6,0.1,2.4,0c7.2-0.6,11.4-7.6,8.4-14.1&#xA;	c-1.8-3.8-5.4-4.8-9-5.9c-3.3-1-6.8-1-10.3-1.3c-1.5-0.1-2.8-0.8-4.3-0.8c-4.3,0-8.5-0.9-12.8-1.4c-3-0.3-6-0.4-8.9-0.8&#xA;	c-0.6-0.1-0.8,0.1-0.8,0.7c0,2.4-0.3,4.8-0.5,7.2c-0.4,3.7-0.8,7.4-1.3,11.2c-0.1,0.9,0.4,1,1,1c1.6,0.2,3.2,0.4,4.8,0.6&#xA;	c6.2,0.7,12.4,1.5,18.6,2.1C623.2,84,627.4,84.9,631.7,84.9z M631.4,50.4c7.4,0.5,10.9-1.8,12.2-6.9c1-4.1-0.1-7.6-3.3-9.5&#xA;	c-0.6-0.4-1.3-0.7-2-0.9c-3.1-1.1-6.4-1.3-9.5-2.2c-1.2-0.3-2.5,0.2-3.7-0.5c-0.1,0-0.2,0-0.2,0c-1.7-0.2-3.5-0.5-5.2-0.5&#xA;	s-3.4-0.2-5.1-0.6c-0.8-0.2-1.6-0.4-2.5-0.3c-3.4,0.1-6.7-0.6-10.1-0.7c-1.6-0.1-1.6-0.2-1.8,1.5c-0.5,5.2-1.1,10.3-1.7,15.5&#xA;	c-0.1,1.1,0.3,1.3,1.3,1.4c4.7,0.5,9.4,1.1,14.1,1.6C620.2,49.1,626.6,49.8,631.4,50.4z"/>
<path class="st2" d="M272.9,35.9c0,5.6-1.1,11-5.1,15.4c-2.5,2.9-5.5,5.1-9.1,6.4c-0.9,0.3-1,0.6-0.6,1.4c0.2,0.4,0.4,0.8,0.7,1.2&#xA;	c6.1,8.9,11.8,18.1,17.8,27.1c1.5,2.2,1.5,2.2-1.1,2.6c-4.2,0.5-8.4,0.9-12.7,1.4c-0.7,0.1-1.1-0.2-1.5-0.8&#xA;	c-4.7-7.2-9.4-14.4-14-21.5c-1.6-2.4-3.2-4.8-4.8-7.2c-0.4-0.6-1-0.8-1.7-0.7c-8.6,1-17.2,2.1-25.7,3.4c-0.8,0.1-1.1,0.4-1,1.3&#xA;	c1.4,9.1,2.7,18.2,4.1,27.3c0.1,0.9,0.1,1.8,0.4,2.7c0.3,1.2-0.2,1.5-1.3,1.6c-3.1,0.3-6.3,0.7-9.4,1.3c-1.1,0.2-2.4,0.9-3.2,0.4&#xA;	c-0.8-0.6-0.5-2.1-0.6-3.1c-0.8-5.6-1.4-11.2-2.5-16.8c-1.5-6.9-2.3-13.9-3.4-20.9c-0.4-2.4-1.1-4.7-1.4-7c-1-6.7-2-13.4-3.1-20.1&#xA;	c-0.5-3.4-0.9-6.8-1.7-10.1c-0.4-1.9-0.2-2.1,1.7-2.4c4.5-0.7,9-1.4,13.6-2.1c6.5-0.9,13.1-1.8,19.7-2.7c5.4-0.7,10.7-1.5,16.1-2.1&#xA;	c7-0.9,13.7-0.1,19.9,3.6c5.6,3.4,8.6,8.6,9.7,15C272.9,32.3,272.9,34.1,272.9,35.9z M247.3,25.6c-2.4,0-4.8,0.5-7.2,0.9&#xA;	c-4.2,0.7-8.5,1.1-12.7,1.7c-5.8,0.8-11.5,1.6-17.3,2.4c-0.9,0.1-1.3,0.4-1,1.4c0.6,2.5,0.8,5,1.2,7.5c0.4,3.3,1,6.6,1.6,9.9&#xA;	c0.1,0.8,0.4,1.4,1.5,1.2c3.3-0.5,6.7-1,10-1.4c8.3-1.1,16.7-2.1,25-3.3c4.5-0.7,8.1-2.6,9.4-7.5c1.2-4.4-0.5-8.9-4.2-11.5&#xA;	C251.6,25.5,249.5,25.6,247.3,25.6z"/>
<path class="st2" d="M370.1,83.1c-2.9,0.2-5.7,0.4-8.5,0.5c-1.7,0.1-3.4,0.2-5.1,0.2c-1.6,0-3,0.1-3.9-2c-1-2.4-2.6-4.5-3.9-6.8&#xA;	c-4.1-7.3-8.2-14.6-12.5-21.8c-0.4-0.7-0.8-1-1.7-0.9c-8.6,0.6-17.3,1.2-25.9,1.8c-0.9,0.1-0.9,0.5-0.9,1.1&#xA;	c0.3,3.8,0.6,7.6,0.9,11.5c0.5,6.4,1,12.8,1.5,19.2c0.1,0.8-0.3,1.2-1.1,1.2c-3.9,0.3-7.8,0.6-11.7,1c-1,0.1-1.4-0.1-1.5-1.3&#xA;	c-0.6-6.9-1.2-13.8-1.9-20.6c-0.5-5.1-0.9-10.2-1.3-15.3c-0.7-7.9-1.5-15.7-2.2-23.6c-0.6-6.5-1.1-12.9-1.7-19.4&#xA;	c-0.1-0.6,0.3-0.7,0.7-0.8c1.3-0.1,2.6-0.3,3.9-0.4c11.5-0.9,23-1.9,34.5-2.7c4.5-0.3,9.1-0.7,13.6-0.8c7.2-0.1,14.1,1.3,19.8,6.1&#xA;	c3.4,2.9,5.7,6.4,6.6,10.9c1.1,5.6,1.1,11.2-0.8,16.6c-2.2,6.3-6.8,10.3-12.9,12.8c-0.8,0.3-1.9,0.5-2.3,1.1c-0.5,0.8,0.7,1.3,1.1,2&#xA;	c2.5,4.5,5.2,9,7.8,13.5c1.3,2.2,2.5,4.5,3.8,6.8c1.6,2.9,3.3,5.8,4.9,8.7C369.7,82.1,369.8,82.5,370.1,83.1z M310.8,40&#xA;	c10.8-0.9,21.6-1.8,32.4-2.3c3.4-0.2,6.3-1.7,8.5-4.2c1.7-1.9,2-4.3,1.9-6.8c0-5.2-3.3-8.4-8.2-9.1c-2.4-0.3-4.7-0.2-7.1-0.1&#xA;	c-4.3,0.3-8.6,0.6-12.9,0.9c-6.4,0.4-12.8,1-19.2,1.4c-1.2,0.1-1.4,0.6-1.3,1.6c0.5,5.9,0.9,11.9,1.4,17.8c0,0.7,0.3,0.8,0.9,0.8&#xA;	C308.4,39.9,309.6,40,310.8,40z"/>
<path class="st2" d="M824.8,140.1c-2.6-0.1-5.5-0.3-8.4-0.8c-2.5-0.4-5-1-7.5-1.4c-1.9-0.3-3.7-1.1-5.5-1.7&#xA;	c-9.1-2.9-17.2-7.4-23.8-14.3c-2.9-3-5.5-6.3-7.4-10c-0.3-0.6-1.3-0.9-0.9-1.6c0.3-0.5,1-0.7,1.6-1c3.2-1.8,6.4-3.6,9.6-5.4&#xA;	c0.7-0.4,1,0.1,1.3,0.5c1.7,1.9,3.3,3.8,4.9,5.7c7.1,8.4,16.5,12.9,27.1,14.9c5.1,1,10.3,1.3,15.4,0.2c3.2-0.7,6-2.1,7.4-5.3&#xA;	c1.4-3.3,0.7-7.1-1.7-9.7c-2.8-3.1-6.4-4.6-10.2-6.1c-7.4-2.9-15.3-4.1-22.8-6.6c-6.3-2.2-11.5-5.7-15.1-11.5c-2.4-4-3.1-8.4-2.3-13&#xA;	c1.4-8.1,6.2-13.4,13.8-16.5c8-3.3,16.2-3.1,24.5-1.8c7.9,1.2,15,4.5,21.7,8.8c5.5,3.6,10.3,7.8,14.4,13c0.4,0.5,0.5,0.7-0.1,1.1&#xA;	c-3.2,2.3-6.3,4.7-9.4,7.1c-1,0.7-1.5,0.7-2.4-0.2c-3.9-4.1-7.9-8-12.8-10.9c-1.7-1-3.7-2-5.3-2.6c-1.1-0.5-1.4-0.6-2.7-1.1&#xA;	c-0.7-0.3-1.7-0.6-2.1-0.7c-5.1-1.3-10.2-1.5-15.4-0.9c-2.6,0.3-5.1,1.2-7.2,3c-3.5,3-3.4,8,0.3,10.7c3,2.3,6.7,3.2,10.3,4.1&#xA;	c7.4,1.9,14.9,3.7,21.8,7c5,2.4,9.6,5.4,13.3,9.7c6.2,7.2,6,16.8,2.5,24c-3.4,6.9-9.3,10.5-16.4,12.2&#xA;	C832,139.8,828.6,140,824.8,140.1z"/>
<path class="st2" d="M714.7,29.3c1.6,0.4,3.2,0.5,4.8,1c2.8,0.8,5.6,1.2,8.4,1.6c1,0.1,1.4,0.6,1.6,1.6c2.1,8.8,4.4,17.6,6.6,26.4&#xA;	c1.4,5.6,2.6,11.4,4.1,17c2.4,8.7,4,17.6,6.3,26.3c1.3,5,2.1,10.1,3.2,15.1c0.2,0.9,0.1,1.1-0.9,0.9c-4.6-0.8-9-1.9-13.6-2.8&#xA;	c-0.9-0.2-1.3-0.5-1.5-1.4c-1.4-6.4-3.2-12.7-4.4-19.2c-0.4-2-0.5-2.1-2.5-2.4c-10.6-1.9-21.3-3.8-31.9-6h-0.1&#xA;	c-2.9-0.8-4.9-0.3-6.7,2.6c-2.9,4.8-6.4,9.2-9.5,14c-0.6,1-1.2,1.3-2.5,1.1c-2.5-0.3-4.8-1.1-7.3-1.3c-1.9-0.1-3.8-0.9-5.7-1&#xA;	c-0.7,0-1.1-0.4-0.4-1c1.8-1.8,2.9-4.2,4.3-6.2c3.9-5.5,7.6-11.1,11.5-16.7c4.5-6.5,9-13.1,13.7-19.5c5-7,10-13.9,15.1-20.7&#xA;	c2.1-2.8,4.3-5.6,6.2-8.6C713.8,29.5,714.1,29.3,714.7,29.3z M725.1,78.2c-0.1-0.5-0.2-0.8-0.3-1.2c-1.9-7.9-3.9-15.7-5.8-23.6&#xA;	c-0.2-1-0.5-1.9-0.7-2.9c-0.2-0.6-0.4-0.9-1-0.3c-0.4,0.4-0.8,0.9-1.1,1.3c-2.3,3-4.5,6.1-6.8,9.1c-2.9,4-5.8,8.1-8.7,12.2&#xA;	c-0.8,1.2-0.8,1.3,0.7,1.6c5.7,1.1,11.4,2.1,17.2,3.2c1.8,0.3,3.7,0.7,5.5,1C724.6,78.7,725.1,78.8,725.1,78.2z"/>
<path class="st2" d="M463.8,82.1c-2.2,0-4.5,0-6.7,0c-1,0-1.5-0.3-1.9-1.2c-2.6-6.1-5.3-12.1-7.9-18.2c-0.3-0.8-0.8-1.2-1.6-1.2&#xA;	c-1.8,0-3.6-0.1-5.4,0c-10.2,0-20.3,0.1-30.5,0.1c-1.5,0-2.3,0.4-2.9,1.9c-2.2,5.5-4.6,10.9-6.9,16.3c-0.3,0.7-0.9,1.3-1.1,2.1&#xA;	c-0.1,0.4-0.5,0.5-0.9,0.5c-4.6,0-9.2,0.4-13.9,0.3c-1,0-1.3-0.3-0.8-1.3c1.2-2.4,2.4-4.8,3.4-7.3c0.6-1.6,1.3-3.2,2-4.8&#xA;	c0.5-1.1,1.3-2,1.7-3.1c2.5-6.9,5.7-13.5,8.7-20.3c2.8-6.5,5.8-13,8.7-19.5c3.6-8,7.1-16,11.1-23.9c0.7-1.5,1.5-1.9,3-1.8&#xA;	c4,0.1,8.1,0,12.1,0c1.1,0,1.6,0.4,2,1.4c1.2,2.7,2.6,5.3,3.8,8c4.1,8.7,8.2,17.5,12,26.3c2.5,5.8,5.2,11.6,7.8,17.4&#xA;	c2.2,5,4.2,10.1,6.6,15.1c1.6,3.5,3,7.2,4.6,10.8c0.3,0.6,0.5,1.1,0.8,1.7c0.5,0.7,0.3,1.1-0.6,1.1c-2.4,0-4.8,0-7.2,0&#xA;	C463.8,82.3,463.8,82.2,463.8,82.1z M427.3,47.3C427.3,47.2,427.3,47.2,427.3,47.3c3.9-0.1,7.8-0.1,11.7-0.1c0.9,0,1.4,0,0.8-1.1&#xA;	c-0.5-1-0.9-2.1-1.4-3.1c-3.5-7.5-7-15-10.5-22.5c-0.1-0.3-0.2-0.6-0.6-0.6c-0.3,0-0.5,0.3-0.6,0.6c-0.6,1.3-1.3,2.7-1.9,4.1&#xA;	c-3.5,7.1-6.7,14.3-10,21.5c-0.3,0.7-0.6,1.2,0.6,1.2C419.4,47.2,423.3,47.3,427.3,47.3z"/>
<path class="st2" d="M0.3,98.1C0.1,92.8,1,87.3,3.5,82.3c1.8-3.6,3.7-7.1,6.4-10.2c5.1-5.9,11.2-10.5,18.4-13.4&#xA;	c9.7-4,19.9-4.8,30.3-3.3c7.5,1.1,14.5,3.7,21,7.4c0.5,0.3,0.6,0.5,0.2,0.9c-2.7,3.5-5.4,7-8.1,10.5c-0.4,0.5-0.6,0.5-1.1,0.1&#xA;	c-1.3-1-2.9-1.4-4.4-1.9c-1.4-0.5-2.9-0.9-4.3-1.4c-0.9-0.3-1.7-1-2.8-1.3c-2.7-0.8-5.3-0.8-8-0.7c-3.6,0.1-7.2,0-10.8,0.8&#xA;	c-7.5,1.7-14.1,5.2-19,11.2c-5.7,7-7.3,14.9-5.4,23.7c2.4,10.8,11.6,18.6,22.5,20.4c9.7,1.6,18.8-0.5,27.5-5.1&#xA;	c4.9-2.6,8.8-6.4,12.2-10.6c1.1-1.3,1.7-2.9,2.5-4.4c0.4-0.8,0.8-0.9,1.4-0.4c3.5,2.2,6.9,4.4,10.4,6.6c0.5,0.3,0.7,0.6,0.3,1.2&#xA;	c-4.1,7.1-9.2,13.3-16.4,17.7c-8.9,5.4-18.5,8.9-28.9,9.9c-4.4,0.4-8.8-0.1-13.3-0.9c-4.7-0.8-9-2.5-13.2-4.8&#xA;	c-6.5-3.6-11.6-8.7-15.4-15.1C1.7,112.7,0.1,105.8,0.3,98.1z"/>
<path class="st1" d="M431.5,155.2c0.5-0.6,0.2-1.2,0.2-1.7c0-5.4,0-10.7,0-16.1c0-0.8,0.2-1,1.1-1c2.6,0,5.2-0.1,7.9,0.1&#xA;	c0.7,0.1,1.1,0.3,1,1c0,0.6,0.1,1.2,0.1,1.9c0,10.9,0.1,21.7-0.1,32.6c0,0.9-0.3,1.2-1.2,1.2c-2-0.1-4.1,0-6.1,0&#xA;	c-1.1,0-2-0.4-2.6-1.4c-2-3.2-4.6-6-6.9-9c-1.9-2.5-3.8-5-5.7-7.4c-0.5-0.6-1-1.6-1.7-1.4c-0.6,0.2-0.2,1.3-0.2,2&#xA;	c-0.1,5.4-0.2,10.7-0.2,16.1c0,0.8-0.3,1.1-1.1,1.1c-2.5,0-5-0.1-7.5,0c-1.1,0-1.2-0.4-1.2-1.3c0-6.9,0-13.8,0-20.7&#xA;	c0-4.5,0-9,0-13.5c0-1,0.3-1.3,1.3-1.3c2.3,0,4.7,0,7,0c0.7,0,1.2,0.3,1.6,0.8c3.7,4.8,7.4,9.7,11.1,14.5&#xA;	C429.1,152.9,430.2,154.1,431.5,155.2z"/>
<path class="st1" d="M518,154.7c0-5.7,0-11.3,0-17c0-1,0.1-1.3,1.3-1.3c6.1,0.1,12.2-0.2,18.2,0.1c4.2,0.2,8,1.8,10.8,5.3&#xA;	c3.1,3.9,3.5,12.5-2,16.6c-1,0.7-1.9,1.6-3.2,2c-0.7,0.2-0.4,0.5-0.1,0.8c2.9,3.5,5.4,7.3,7.9,11c0.6,0.8,0.5,1.2-0.6,1.2&#xA;	c-2.8,0-5.7,0-8.5,0c-1.5,0-2.4-0.8-3.1-1.9c-1.8-2.6-3.5-5.1-5.2-7.8c-0.6-1-1.3-1.4-2.5-1.4c-2.8,0-2.8,0-2.8,2.8&#xA;	c0,2.4-0.1,4.7,0,7.1c0,0.9-0.3,1.2-1.2,1.1c-2.5,0-5.1-0.1-7.6,0c-0.9,0-1.2-0.2-1.2-1.2c0-2.9,0-5.8,0-8.7&#xA;	C518,160.4,518,157.6,518,154.7L518,154.7z M532.7,154L532.7,154c1.1,0,2.2,0,3.4,0c0.2,0,0.4,0,0.6-0.1c2-0.3,3.3-1.7,3.5-3.7&#xA;	c0.2-3.2-0.9-4.5-4.3-5.1c-2.2-0.2-4.4-0.2-6.6-0.2c-0.8-0.1-1,0.7-1,1.3c-0.2,2.3,0,4.6-0.1,6.9c0,0.7,0.5,0.9,1.1,0.9&#xA;	C530.3,154,531.5,154,532.7,154z"/>
<path class="st1" d="M498.4,151.9c2.5,0,5.1,0,7.6,0c0.7,0,0.8,0.3,0.8,0.9c0,4.9,0,9.7,0,14.6c0,0.8-0.3,1.2-0.9,1.5&#xA;	c-2.9,1.7-5.8,3.4-9.2,4.1c-6.9,1.5-13.4,0.7-19.1-3.8c-2.8-2.2-4.5-5-5.6-8.3c-0.9-2.7-1.4-5.5-0.9-8.2c1.2-6.6,4.2-11.9,10.6-15&#xA;	c5.2-2.5,10.5-2.7,15.9-1.1c2.5,0.8,4.9,2.1,7,3.7c0.6,0.4,0.7,0.7,0.2,1.4c-1.5,2-3.2,3.8-4.7,5.8c-0.5,0.6-0.9,0.6-1.4,0.1&#xA;	c-1.2-1-2.3-2-3.8-2.4c-6.8-2-12.2,0.9-13.4,8.2c-0.5,2.9,0.2,5.7,1.9,8c1.7,2.3,4.1,3.2,6.8,3.5c2,0.2,4-0.2,5.9-0.9&#xA;	c0.3-0.1,0.8-0.2,0.8-0.6c0.1-1.2,0.2-2.5,0-3.7c-0.1-0.6-0.6-0.6-1.1-0.6c-1.7,0-3.4,0-5.1,0c-0.7,0-1-0.2-0.9-0.9&#xA;	c0-1.8,0-3.7,0-5.5c0-0.8,0.4-1,1.1-1C493.4,151.9,495.9,151.9,498.4,151.9L498.4,151.9z"/>
<path class="st1" d="M289.3,173.2c-1.4-0.1-3.1,0.2-4.8-0.2c-0.8-0.2-1.2-0.6-1.4-1.5c-0.3-1.3-0.9-2.6-1.3-3.9&#xA;	c-0.2-0.7-0.7-1-1.4-1c-4.2,0-8.4-0.1-12.6-0.1c-0.7,0-1,0.3-1.3,1c-0.5,1.5-1.1,3-1.6,4.5c-0.3,0.9-0.8,1.3-1.8,1.3&#xA;	c-2.6-0.1-5.2-0.1-7.9,0c-1.2,0-1.3-0.4-0.9-1.3c2.7-6.6,5.5-13.1,8.2-19.7c2.1-5,4.2-10,6.3-15.1c0.2-0.5,0.5-0.8,1.1-0.8&#xA;	c3-0.4,6-0.2,9,0c0.4,0,0.6,0.2,0.7,0.6c1.8,5.3,4.4,10.3,6.5,15.5c2.5,6.2,5.2,12.3,7.8,18.5c1,2.3,0.9,2.3-1.6,2.3&#xA;	C291.4,173.2,290.5,173.2,289.3,173.2z M273.9,158.7L273.9,158.7c1.1,0,2.2,0.1,3.2,0c0.7,0,1-0.2,0.7-1.1c-1.1-2.6-2-5.2-3-7.8&#xA;	c-0.1-0.3-0.3-0.6-0.7-0.7c-0.5,0-0.6,0.3-0.8,0.7c-1.2,2.7-2,5.6-3.3,8.2c-0.3,0.6,0.3,0.6,0.6,0.6&#xA;	C271.8,158.7,272.9,158.7,273.9,158.7z"/>
<path class="st1" d="M393.5,173.2c-1.3,0-2.7,0-4,0c-1.2,0-1.9-0.5-2.2-1.6c-0.4-1.3-0.9-2.6-1.5-3.8c-0.3-0.8-0.8-1.1-1.6-1.1&#xA;	c-4-0.1-7.9-0.2-11.9,0c-0.8,0-1.3,0.4-1.5,1.2c-0.5,1.4-1.1,2.8-1.7,4.2c-0.3,0.9-0.9,1.3-1.9,1.3c-2.7-0.1-5.3-0.1-8,0&#xA;	c-0.9,0-1.2-0.2-0.8-1.1c1.5-3.4,3-6.8,4.5-10.3s2.9-7,4.4-10.5c2-4.8,4-9.6,6-14.4c0.2-0.6,0.5-0.9,1.2-0.9c2.5,0,5.1,0,7.6,0.1&#xA;	c0.8,0,1.3,0.3,1.6,1.2c1.1,2.8,2.4,5.6,3.6,8.4c2.1,4.8,4.1,9.7,6.1,14.5c1.4,3.3,3,6.6,4.3,9.9c0.3,0.7,0.5,1.4,0.8,2.1&#xA;	c0.4,0.8,0,1-0.8,1C396.3,173.2,394.9,173.2,393.5,173.2L393.5,173.2z M378.2,158.7L378.2,158.7c1.1,0,2.2,0,3.4-0.1&#xA;	c0.5,0,0.8-0.1,0.5-0.8c-1-2.7-2.4-5.3-3.1-8.2c-0.1-0.3-0.1-0.8-0.6-0.8c-0.4,0-0.5,0.5-0.7,0.8c-1,2.7-1.9,5.4-3.1,8&#xA;	c-0.4,0.8,0,1.1,0.7,1.1C376.3,158.7,377.2,158.7,378.2,158.7z"/>
<path class="st1" d="M302.7,154.8c0-5.6,0-11.2,0-16.7c0-1.1,0.1-1.6,1.4-1.6c2.6-0.1,5.2,0,7.9-0.1c0.8,0,0.8,0.4,0.9,1&#xA;	c0.2,2.7,0.2,5.4,0.2,8.1c0,5.9,0.2,11.8-0.1,17.7c0,0.6,0.2,0.9,0.8,1c0.6,0,1.2,0.1,1.7,0.1c4.7,0,9.3,0.1,14,0&#xA;	c1.2,0,1.5,0.4,1.4,1.5c-0.1,2.1-0.1,4.2,0,6.2c0,1-0.4,1.2-1.3,1.2c-8.5,0-17,0-25.5,0c-1.1,0-1.3-0.4-1.3-1.3&#xA;	C302.8,166.2,302.7,160.5,302.7,154.8L302.7,154.8z"/>
<path class="st1" d="M619.9,154.8c0-5.6,0-11.2,0-16.7c0-1.2,0.1-1.8,1.6-1.7c2.5,0.1,5-0.1,7.5,0.1c1,0.1,1.1,0.5,1.1,1.3&#xA;	c0,4.2,0,8.5,0,12.7c0,4.1,0,8.2,0,12.4c0,1.1,0.3,1.4,1.4,1.4c5,0,10,0,15,0c1.1,0,1.5,0.2,1.4,1.4c-0.1,2.2-0.1,4.3-0.1,6.5&#xA;	c0,0.9-0.3,1.1-1.2,1.1c-8.5,0-17.1,0-25.6,0c-0.7,0-1-0.1-1-0.9C620,166.4,620,160.6,619.9,154.8C620,154.8,620,154.8,619.9,154.8z"/>
<path class="st2" d="M780.4,51.2c-0.2,3.8-1.9,7.8-5.1,11.1c-3.8,4-8.6,6.2-13.6,8.2c-2,0.8-2.1,0.8-3.1-1.1&#xA;	c-0.5-0.9-1.1-1.9-1.6-2.8c-0.4-0.6-0.2-1,0.5-1.2c4.9-1.7,9.6-3.8,12.9-8c0.8-1,0.9-1.2-0.4-1.5c-1.3-0.3-2.6-0.7-3.9-1.3&#xA;	c-4-1.9-5.9-6-4.7-10c1.1-3.8,5.2-6.3,9.4-5.8C776.5,39.5,780.5,44.4,780.4,51.2z"/>
<path class="st1" d="M339.4,154.9c0-5.7,0-11.5,0-17.2c0-1,0.3-1.4,1.3-1.3c2.7,0.1,5.3-0.1,8,0.1c0.8,0,0.9,0.3,0.9,1&#xA;	c0,11.5,0,23.1,0,34.6c0,0.9-0.3,1.3-1.2,1.2c-2.6-0.1-5.2-0.1-7.9,0c-0.9,0-1.1-0.2-1.1-1.1C339.4,166.4,339.4,160.6,339.4,154.9z"/>
<path class="st1" d="M571,154.8c0,5.7,0,11.4,0,17.1c0,1-0.3,1.3-1.3,1.3c-2.4-0.1-4.8-0.1-7.2,0c-1.1,0-1.5-0.2-1.5-1.4&#xA;	c0.1-8.5,0.1-16.9,0.1-25.4c0-2.8,0-5.7-0.1-8.5c-0.1-1.3,0.4-1.7,1.6-1.6c2.4,0.1,4.8,0,7.2,0c1,0,1.2,0.3,1.2,1.2&#xA;	C571.1,143.3,571.1,149.1,571,154.8C571.1,154.8,571,154.8,571,154.8z"/>
<path class="st1" d="M665.2,154.2c5.5-0.2,9.8,4.5,9.7,9.6c-0.1,3.9-3.6,9.3-10.2,9.1c-5.5-0.2-9.5-4.2-9.5-9.6&#xA;	C655.1,158.2,659.6,154.2,665.2,154.2z M657.6,163.4c-0.5,5.2,3.6,7.7,7.2,8c3.4,0.2,7.5-2.2,7.7-7.5c0.2-4.9-3.4-7.7-7.4-8.1&#xA;	C661,155.3,657.8,158.9,657.6,163.4z"/>
<path class="st1" d="M661.2,163.7c0-1.2,0-2.3,0-3.5c0-0.8,0.1-1.1,1-1.2c1.7-0.2,3.3-0.3,5,0.1c1.3,0.3,2,1.2,2.1,2.3&#xA;	c0,0.9-0.8,1.7-1.2,2c-0.4,0.3-0.5,0.4-0.3,0.8c0.4,0.8,0.7,1.8,1.3,3c0.1,0.4,0.7,1,0,1.3c-0.6,0.3-1.5,0.2-1.9-0.5&#xA;	c-0.3-0.4-0.4-1-0.6-1.5c-0.4-1.6-1.2-2.1-2.8-1.7c-0.5,0.1-0.7,0.4-0.7,0.9c0,0.6,0,1.2,0.1,1.7c0.1,0.7-0.1,1-0.8,1.1&#xA;	c-0.7,0-1.3-0.3-1.2-1c0-1.2,0-2.2,0-3.4C661.2,163.9,661.2,163.8,661.2,163.7z M664.8,163.2c1.1,0.1,2.2-0.6,2.2-1.4&#xA;	s-0.9-1.6-1.9-1.6c-1.2-0.1-1.9,0.5-2,1.4C663.1,162.7,663.5,163.1,664.8,163.2z"/>
</svg>